# xmcd CD database file
#
# Track frame offsets:
#	150
#	17389
#	31918
#	44666
#	57963
#	71007
#	85260
#	102510
#	118107
#	133615
#	153574
#	164320
#	177290
#	190407
#
# Disc length: 2712 seconds
#
# Revision: 0
# Processed by: cddbd v1.5.2PL0 Copyright (c) Steve Scherf et al.
# Submitted via: CDex 1.51
#
DISCID=bf0a960e
DTITLE=Sarah Savoy and the Francadians - C'ez Savoy
DYEAR=2009
DGENRE=Country
TTITLE0=Leve Tes Fenetres Hautes
TTITLE1=Eunice Two-Step
TTITLE2=Pour La Derniere Fois
TTITLE3=À La Maison Two-Step
TTITLE4=Dis-moi Que Tu M'aime Pas
TTITLE5=Vilaines Manieres
TTITLE6=Lost Highway
TTITLE7=Grand Texas
TTITLE8=T'as Pas Honte
TTITLE9=Arrete Pas La Musique
TTITLE10=I'd Like To See You Tonight
TTITLE11=Lapin Dans Son Nique
TTITLE12=Marie Mouri
TTITLE13='Tit monde, 'Tit monde
EXTD=YEAR: 2009
EXTT0=
EXTT1=
EXTT2=
EXTT3=
EXTT4=
EXTT5=
EXTT6=
EXTT7=
EXTT8=
EXTT9=
EXTT10=
EXTT11=
EXTT12=
EXTT13=
PLAYORDER=
